REM MD5 344ca14043175dd123344f8c81d3a480
FILE "Dengeki PlayStation D8 (Japan).bin" BINARY
  TRACK 01 MODE2/2352
    INDEX 01 00:00:00
  TRACK 02 AUDIO
    INDEX 00 50:21:38
    INDEX 01 50:23:38
  TRACK 03 AUDIO
    INDEX 00 52:56:26
    INDEX 01 52:58:26
  TRACK 04 AUDIO
    INDEX 00 55:13:39
    INDEX 01 55:15:39
REM LEADOUT 55:28:65
